<?xml version="1.0" standalone="no"?><!DOCTYPE svg PUBLIC "-//W3C//DTD SVG 1.1//EN" "http://www.w3.org/Graphics/SVG/1.1/DTD/svg11.dtd"><svg t="1698654671913" class="icon" viewBox="0 0 1024 1024" version="1.1" xmlns="http://www.w3.org/2000/svg" p-id="5002" xmlns:xlink="http://www.w3.org/1999/xlink" width="200" height="200"><path d="M168.405333 213.333333a64 64 0 0 1 64-64h554.666667a64 64 0 0 1 64 64v170.666667a64 64 0 0 1-64 64h-554.666667a64 64 0 0 1-64-64V213.333333zM256 298.666667a42.666667 42.666667 0 1 0 85.333333 0 42.666667 42.666667 0 0 0-85.333333 0z m170.666667-42.666667a42.666667 42.666667 0 1 0 0 85.333333 42.666667 42.666667 0 0 0 0-85.333333zM168.405333 554.666667a64 64 0 0 1 64-64h554.666667a64 64 0 0 1 64 64v170.666666a64 64 0 0 1-64 64H544v74.666667H810.666667a32 32 0 0 1 0 64H213.333333a32 32 0 0 1 0-64h266.666667V789.333333H232.405333a64 64 0 0 1-64-64v-170.666666zM256 640a42.666667 42.666667 0 1 0 85.333333 0 42.666667 42.666667 0 0 0-85.333333 0z m128 0a42.666667 42.666667 0 1 0 85.333333 0 42.666667 42.666667 0 0 0-85.333333 0z" fill="#000000" p-id="5003"></path></svg>